<svg version="1.1" id="Reference" xmlns="http://www.w3.org/2000/svg" x="0" y="0" viewBox="0 0 220.3 220.3" style="enable-background:new 0 0 220.3 220.3" xml:space="preserve"><style>.st0{fill:#b3a7fe}.st1{fill:#bc70c4;stroke:#f0f;stroke-miterlimit:10}.st2{fill:#5b1b89;stroke:#f0f;stroke-miterlimit:10}.st3{fill:#cec3ea;stroke:#f0f;stroke-miterlimit:10}.st4{opacity:.15;fill:#fff}.st5{fill:#fff}.st6{fill:#bc70c4}.st7{fill:#e2d942}.st8{fill:#859e1e}.st9{stroke:#000;stroke-width:.25px;stroke-miterlimit:10}.st10{fill:#fff;stroke:#000;stroke-width:.25px;stroke-miterlimit:10}.st11{fill:#bc70c4;stroke:#000;stroke-width:.25px;stroke-miterlimit:10}</style><path d="M192.65.15h-165C12.47.15.15 12.47.15 27.65v165c0 15.18 12.32 27.5 27.5 27.5h165c15.18 0 27.5-12.32 27.5-27.5v-165c0-15.18-12.32-27.5-27.5-27.5zm-77 11h41.25V52.4h-41.25V11.15zm-104.5 16.5c0-9.09 7.41-16.5 16.5-16.5h77V52.4h-93.5V27.65zm0 35.75H156.9v41.25H11.15V63.4zm93.5 52.25v41.25H63.4v-41.25h41.25zm-52.25 93.5H27.65c-9.09 0-16.5-7.41-16.5-16.5V167.9H52.4v41.25zm0-52.25H11.15v-41.25H52.4v41.25zm156.75 35.75c0 9.09-7.41 16.5-16.5 16.5H63.4V167.9h145.75v24.75zm0-35.75h-93.5v-41.25h93.5v41.25zm0-52.25H167.9V63.4h41.25v41.25zm0-52.25H167.9V11.15h24.75c9.09 0 16.5 7.41 16.5 16.5V52.4z"/><path class="st5" d="M52.4 167.9v41.25H27.65c-9.09 0-16.5-7.41-16.5-16.5V167.9H52.4zM63.4 115.65h41.25v41.25H63.4zM167.9 63.4h41.25v41.25H167.9zM115.65 11.15h41.25V52.4h-41.25z"/><path class="st6" d="M209.15 27.65V52.4H167.9V11.15h24.75c9.09 0 16.5 7.41 16.5 16.5zM11.15 115.65H52.4v41.25H11.15zM209.15 167.9v24.75c0 9.09-7.41 16.5-16.5 16.5H63.4V167.9h145.75zM115.65 115.65h93.5v41.25h-93.5zM11.15 63.4H156.9v41.25H11.15zM104.65 11.15V52.4h-93.5V27.65c0-9.09 7.41-16.5 16.5-16.5h77z"/></svg>